<svg id="Group_621" data-name="Group 621" xmlns="http://www.w3.org/2000/svg" xmlns:xlink="http://www.w3.org/1999/xlink" width="47.273" height="47.03" viewBox="0 0 47.273 47.03">
  <defs>
    <clipPath id="clip-path">
      <rect id="Rectangle_408" data-name="Rectangle 408" width="47.273" height="47.03" fill="#3794a7"/>
    </clipPath>
  </defs>
  <g id="Group_620" data-name="Group 620" transform="translate(0 0)" clip-path="url(#clip-path)">
    <path id="Path_499" data-name="Path 499" d="M32.529,49.818a3,3,0,0,1-2.133-.883L26.322,44.86l1.114-1.114,4.074,4.075A1.441,1.441,0,0,0,33.97,46.8a1.452,1.452,0,0,0-.422-1.019L27.34,39.576H19V38h8.667a.787.787,0,0,1,.557.231l6.438,6.439a3.016,3.016,0,0,1-2.133,5.149" transform="translate(-4.03 -8.061)" fill="#3794a7"/>
    <path id="Path_500" data-name="Path 500" d="M31.541,55.606a2.565,2.565,0,0,1-1.152-.273l-8.423-4.211H19V49.546h3.152a.792.792,0,0,1,.352.083l8.589,4.295a1,1,0,0,0,.951-.031L49.231,43.867a1,1,0,0,0,.14-1.629.994.994,0,0,0-.815-.22L32.529,44.806l-.271-1.553,16.029-2.788a2.576,2.576,0,0,1,1.739,4.762L32.838,55.254a2.561,2.561,0,0,1-1.3.352" transform="translate(-4.03 -8.576)" fill="#3794a7"/>
    <path id="Path_501" data-name="Path 501" d="M17.939,51.182H14.788A.788.788,0,0,1,14,50.394V37.788A.788.788,0,0,1,14.788,37h3.152a.788.788,0,0,1,.788.788V50.394a.788.788,0,0,1-.788.788m-2.364-1.576h1.576V38.576H15.576Z" transform="translate(-2.97 -7.849)" fill="#3794a7"/>
    <path id="Path_502" data-name="Path 502" d="M11.818,51.182H.788A.788.788,0,0,1,0,50.394V37.788A.788.788,0,0,1,.788,37h11.03a.788.788,0,0,1,.788.788V50.394a.788.788,0,0,1-.788.788M1.576,49.606H11.03V38.576H1.576Z" transform="translate(0 -7.849)" fill="#3794a7"/>
    <path id="Path_503" data-name="Path 503" d="M40.515,25.03a5.515,5.515,0,1,1,5.515-5.515,5.522,5.522,0,0,1-5.515,5.515m0-9.455a3.939,3.939,0,1,0,3.939,3.939,3.944,3.944,0,0,0-3.939-3.939" transform="translate(-7.424 -2.97)" fill="#3794a7"/>
    <path id="Path_504" data-name="Path 504" d="M53.939,7.879a3.939,3.939,0,1,1,3.939-3.939,3.944,3.944,0,0,1-3.939,3.939m0-6.3A2.364,2.364,0,1,0,56.3,3.939a2.367,2.367,0,0,0-2.364-2.364" transform="translate(-10.606 0)" fill="#3794a7"/>
    <path id="Path_505" data-name="Path 505" d="M55.152,36.3A3.152,3.152,0,1,1,58.3,33.152,3.155,3.155,0,0,1,55.152,36.3m0-4.727a1.576,1.576,0,1,0,1.576,1.576,1.577,1.577,0,0,0-1.576-1.576" transform="translate(-11.03 -6.364)" fill="#3794a7"/>
    <path id="Path_506" data-name="Path 506" d="M17.939,7.879a3.939,3.939,0,1,1,3.939-3.939,3.944,3.944,0,0,1-3.939,3.939m0-6.3A2.364,2.364,0,1,0,20.3,3.939a2.367,2.367,0,0,0-2.364-2.364" transform="translate(-2.97 0)" fill="#3794a7"/>
    <path id="Path_507" data-name="Path 507" d="M4.727,22.455a4.727,4.727,0,1,1,4.727-4.727,4.732,4.732,0,0,1-4.727,4.727m0-7.879a3.152,3.152,0,1,0,3.152,3.152,3.155,3.155,0,0,0-3.152-3.152" transform="translate(0 -2.758)" fill="#3794a7"/>
    <path id="Path_508" data-name="Path 508" d="M24.939,33.879a3.939,3.939,0,1,1,3.939-3.939,3.944,3.944,0,0,1-3.939,3.939m0-6.3A2.364,2.364,0,1,0,27.3,29.939a2.367,2.367,0,0,0-2.364-2.364" transform="translate(-4.455 -5.515)" fill="#3794a7"/>
    <rect id="Rectangle_403" data-name="Rectangle 403" width="8.375" height="1.575" transform="translate(34.863 12.088) rotate(-48.833)" fill="#3794a7"/>
    <rect id="Rectangle_404" data-name="Rectangle 404" width="1.576" height="7.264" transform="matrix(0.651, -0.759, 0.759, 0.651, 35.73, 21.083)" fill="#3794a7"/>
    <rect id="Rectangle_405" data-name="Rectangle 405" width="6.778" height="1.575" transform="matrix(0.814, -0.581, 0.581, 0.814, 23.179, 22.207)" fill="#3794a7"/>
    <rect id="Rectangle_406" data-name="Rectangle 406" width="1.575" height="19.713" transform="translate(8.635 15.756) rotate(-87.709)" fill="#3794a7"/>
    <rect id="Rectangle_407" data-name="Rectangle 407" width="1.576" height="14.094" transform="translate(16.981 7.008) rotate(-63.435)" fill="#3794a7"/>
  </g>
</svg>
