<svg xmlns="http://www.w3.org/2000/svg" xmlns:xlink="http://www.w3.org/1999/xlink" width="44" height="44" viewBox="0 0 44 44">
  <defs>
    <clipPath id="clip-path">
      <rect id="Rectangle_410" data-name="Rectangle 410" width="44" height="44" transform="translate(0 0)" fill="#3794a7"/>
    </clipPath>
  </defs>
  <g id="Group_628" data-name="Group 628" transform="translate(0 0)">
    <g id="Group_627" data-name="Group 627" clip-path="url(#clip-path)">
      <path id="Path_509" data-name="Path 509" d="M43.988,42.98a.728.728,0,0,1,0-.123c-.791-4.588-2.9-7.326-5.652-7.326l-.6,0c-2.482,0-4.443,0-6.427-2.842a.946.946,0,0,0-.777-.4.941.941,0,0,0-.771,1.481c2.353,3.37,5,3.651,7.505,3.651.191,0,.379,0,.567,0h.506c1.4,0,2.641,1.5,3.4,4.107a.461.461,0,0,1-.442.59H2.7a.462.462,0,0,1-.443-.59c.765-2.61,2-4.107,3.4-4.107h.509c.182,0,.369,0,.557,0,2.616,0,5.368-.282,7.722-3.651A.943.943,0,0,0,12.9,32.691c-1.84,2.633-3.837,2.842-6.255,2.842l-.986,0c-2.749,0-4.86,2.737-5.652,7.325a.7.7,0,0,1,0,.121A.6.6,0,0,1,0,43.06a.734.734,0,0,1,.02.1.957.957,0,0,0,.035.18.981.981,0,0,0,.074.164,1,1,0,0,0,.1.145.89.89,0,0,0,.131.123.876.876,0,0,0,.143.1.953.953,0,0,0,.18.067.919.919,0,0,1,.127.05A.89.89,0,0,0,.933,44H43.066a.925.925,0,0,0,.13-.009.961.961,0,0,1,.129-.051.883.883,0,0,0,.173-.064.924.924,0,0,0,.146-.1.863.863,0,0,0,.129-.121.92.92,0,0,0,.1-.148.871.871,0,0,0,.073-.16.9.9,0,0,0,.036-.183.65.65,0,0,1,.019-.1.581.581,0,0,1-.012-.081" fill="#3794a7"/>
      <path id="Path_510" data-name="Path 510" d="M35.845,14.256a.462.462,0,0,1-.262-.232v-.447c0-4.444-1.158-7.854-3.442-10.137S26.446,0,22,0,14.142,1.157,11.859,3.44,8.417,9.133,8.416,13.564v.462a.454.454,0,0,1-.261.23,3.747,3.747,0,0,0-2.547,3.532V20.6a3.757,3.757,0,0,0,3.753,3.751h3.783a.455.455,0,0,1,.082.133c1.859,4.881,5.468,8.289,8.774,8.289a5.6,5.6,0,0,0,1.711-.278.943.943,0,0,0-.58-1.8A3.728,3.728,0,0,1,22,30.883c-3.258,0-8.185-5.382-8.185-13.495C13.815,9.216,18.266,7.5,22,7.5a7.435,7.435,0,0,1,6.275,2.717.943.943,0,1,0,1.5-1.147A9.335,9.335,0,0,0,22,5.615c-5.214,0-8.666,2.86-9.719,8.054a.46.46,0,0,1-.452.369H10.765a.46.46,0,0,1-.461-.461c0-3.995.941-6.878,2.878-8.814S18,1.886,22,1.886s6.881.941,8.818,2.877S33.7,9.582,33.7,13.577a.46.46,0,0,1-.461.461h-.584l-1.659-.01h-.023a.748.748,0,0,0-.095.009.944.944,0,0,0-.821,1.051,19.047,19.047,0,0,1,.132,2.3,18.206,18.206,0,0,1-.913,5.721.945.945,0,0,0,.84,1.236v0h3.123a.46.46,0,0,1,.461.46,1.867,1.867,0,0,1-1.865,1.865H26.213a.461.461,0,0,1-.461-.461v-1.4a.944.944,0,0,0-1.887,0v2.808a.945.945,0,0,0,.944.943h7.022a3.756,3.756,0,0,0,3.752-3.751v-.258a.461.461,0,0,1,.306-.434,3.755,3.755,0,0,0,2.5-3.519V17.788a3.747,3.747,0,0,0-2.547-3.532M11.5,15.924a.46.46,0,0,1,.46.481l0,.116c-.013.3-.026.574-.026.867a20.272,20.272,0,0,0,.511,4.509.462.462,0,0,1-.449.564H9.361A1.868,1.868,0,0,1,7.495,20.6V17.788a1.867,1.867,0,0,1,1.866-1.864ZM36.505,20.6a1.868,1.868,0,0,1-1.865,1.865H32.006a.462.462,0,0,1-.45-.564,20.184,20.184,0,0,0,.516-4.509c0-.332-.014-.663-.028-.983a.46.46,0,0,1,.46-.481H34.64a1.867,1.867,0,0,1,1.865,1.864Z" fill="#3794a7"/>
    </g>
  </g>
</svg>
