<svg id="Group_632" data-name="Group 632" xmlns="http://www.w3.org/2000/svg" xmlns:xlink="http://www.w3.org/1999/xlink" width="44" height="44" viewBox="0 0 44 44">
  <defs>
    <clipPath id="clip-path">
      <rect id="Rectangle_417" data-name="Rectangle 417" width="44" height="44" fill="#3794a7"/>
    </clipPath>
  </defs>
  <g id="Group_631" data-name="Group 631" clip-path="url(#clip-path)">
    <path id="Path_518" data-name="Path 518" d="M30.422,5.615H27.615a.46.46,0,0,1-.461-.461v-1.4a.944.944,0,0,0-.943-.943H21.229a.46.46,0,0,1-.4-.23,5.124,5.124,0,0,0-8.893,0,.459.459,0,0,1-.4.231H6.558a.944.944,0,0,0-.943.943v1.4a.461.461,0,0,1-.461.461H2.346A2.349,2.349,0,0,0,0,7.962V41.653A2.349,2.349,0,0,0,2.346,44H30.422a2.351,2.351,0,0,0,2.348-2.347V7.962a2.351,2.351,0,0,0-2.348-2.347M7.5,5.154a.46.46,0,0,1,.461-.46h4.469a.944.944,0,0,0,.888-.627,3.244,3.244,0,0,1,6.13,0,.948.948,0,0,0,.889.628h4.469a.461.461,0,0,1,.461.46V7.962a.462.462,0,0,1-.461.461H7.962A.461.461,0,0,1,7.5,7.962Zm23.382,36.5a.46.46,0,0,1-.461.461H2.346a.46.46,0,0,1-.46-.461V7.962a.46.46,0,0,1,.46-.46H5.154a.461.461,0,0,1,.461.46v1.4a.944.944,0,0,0,.943.943H26.211a.944.944,0,0,0,.943-.943v-1.4a.46.46,0,0,1,.461-.46h2.807a.46.46,0,0,1,.461.46Z" fill="#3794a7"/>
    <path id="Path_519" data-name="Path 519" d="M26.211,16.845H19.192a.943.943,0,0,0,0,1.886h7.019a.943.943,0,0,0,0-1.886" fill="#3794a7"/>
    <path id="Path_520" data-name="Path 520" d="M26.211,25.268H19.192a.943.943,0,0,0,0,1.886h7.019a.943.943,0,0,0,0-1.886" fill="#3794a7"/>
    <path id="Path_521" data-name="Path 521" d="M26.211,33.691H19.192a.943.943,0,1,0,0,1.886h7.019a.943.943,0,1,0,0-1.886" fill="#3794a7"/>
    <path id="Path_522" data-name="Path 522" d="M43.057,9.827a.462.462,0,0,1-.461-.461V6.558a.944.944,0,0,0-.943-.943H38.846a.944.944,0,0,0-.943.943V9.366a.462.462,0,0,1-.461.461.944.944,0,0,0-.943.943V34.634a.944.944,0,0,0,.943.943.461.461,0,0,1,.461.461v2.807a.945.945,0,0,0,.943.944.461.461,0,0,1,.461.46v2.808a.943.943,0,0,0,1.886,0V40.249a.46.46,0,0,1,.46-.46.945.945,0,0,0,.943-.944V36.038a.461.461,0,0,1,.461-.461A.944.944,0,0,0,44,34.634V10.77a.944.944,0,0,0-.943-.943m-.943,23.4a.46.46,0,0,1-.461.461H38.846a.46.46,0,0,1-.461-.461V12.173a.461.461,0,0,1,.461-.461h2.807a.461.461,0,0,1,.461.461Z" fill="#3794a7"/>
    <path id="Path_523" data-name="Path 523" d="M13.579,14.038a.938.938,0,0,0-.756.378l-3.24,4.32a.459.459,0,0,1-.336.183H9.214a.458.458,0,0,1-.325-.135L7.225,17.122a.942.942,0,0,0-1.334,0,.946.946,0,0,0,0,1.334L8.667,21.23a.724.724,0,0,1,.093.067.682.682,0,0,1,.066.066l.033.015c.029.013.058.026.087.041l.073.04.023.015a.937.937,0,0,0,.313.065h.021a.922.922,0,0,0,.36-.085.216.216,0,0,0,.029-.021c.03-.022.059-.043.091-.063s.063-.039.1-.057l.059-.035a.791.791,0,0,1,.058-.081.579.579,0,0,1,.086-.082l4.177-5.57a.943.943,0,0,0-.753-1.507" fill="#3794a7"/>
    <path id="Path_524" data-name="Path 524" d="M13.579,22.461a.934.934,0,0,0-.755.377l-3.241,4.32a.457.457,0,0,1-.336.183H9.215a.459.459,0,0,1-.326-.134L7.225,25.544a.943.943,0,0,0-1.333,1.334l2.775,2.775a.641.641,0,0,1,.094.066.787.787,0,0,1,.065.067l.033.014.088.042.073.04.023.014a.961.961,0,0,0,.312.066h.021a.947.947,0,0,0,.361-.086l.029-.02c.029-.022.059-.044.09-.064s.064-.038.1-.057.043-.023.06-.035a.57.57,0,0,1,.058-.081.577.577,0,0,1,.085-.082l4.177-5.569a.942.942,0,0,0-.753-1.507" fill="#3794a7"/>
    <path id="Path_525" data-name="Path 525" d="M13.579,30.884a.94.94,0,0,0-.756.377l-3.24,4.321a.466.466,0,0,1-.336.183H9.214a.462.462,0,0,1-.325-.135L7.225,33.967A.943.943,0,0,0,5.891,35.3l2.776,2.775a.637.637,0,0,1,.093.067.682.682,0,0,1,.066.066l.033.015c.029.013.058.026.087.041l.073.04.023.015a.99.99,0,0,0,.313.065h.021a.959.959,0,0,0,.36-.085.216.216,0,0,0,.029-.021c.03-.022.059-.044.091-.064s.063-.038.1-.057l.059-.034a.805.805,0,0,1,.058-.082.52.52,0,0,1,.086-.081l4.177-5.57a.943.943,0,0,0-.753-1.507" fill="#3794a7"/>
    <path id="Path_526" data-name="Path 526" d="M16.385,5.658a.943.943,0,1,0-.942-.943.944.944,0,0,0,.942.943" fill="#3794a7"/>
  </g>
</svg>
