<svg id="Group_634" data-name="Group 634" xmlns="http://www.w3.org/2000/svg" xmlns:xlink="http://www.w3.org/1999/xlink" width="48" height="48" viewBox="0 0 48 48">
  <defs>
    <clipPath id="clip-path">
      <rect id="Rectangle_421" data-name="Rectangle 421" width="48" height="48" fill="#3794a7"/>
    </clipPath>
  </defs>
  <g id="Group_633" data-name="Group 633" clip-path="url(#clip-path)">
    <path id="Path_527" data-name="Path 527" d="M10.6,19.2a5.6,5.6,0,1,1,5.6-5.6,5.607,5.607,0,0,1-5.6,5.6m0-9.6a4,4,0,1,0,4,4,4,4,0,0,0-4-4" transform="translate(-1 -1.6)" fill="#3794a7"/>
    <path id="Path_528" data-name="Path 528" d="M10.6,53.4H5.8a.8.8,0,0,1-.8-.8V27H6.6V51.8H9.8V36.6h1.6v16a.8.8,0,0,1-.8.8" transform="translate(-1 -5.4)" fill="#3794a7"/>
    <path id="Path_529" data-name="Path 529" d="M14.4,50.4H9.6a.8.8,0,0,1-.8-.8v-16h1.6V48.8h3.2v-24a.8.8,0,0,1,.356-.666L23.2,17.972V14.294l-8.356,5.571A.8.8,0,0,1,14.4,20H4a2.4,2.4,0,0,0-2.4,2.4V33.6H4.8v1.6H.8a.8.8,0,0,1-.8-.8v-12a4,4,0,0,1,4-4H14.158l9.4-6.266A.8.8,0,0,1,24.8,12.8v5.6a.8.8,0,0,1-.356.666L15.2,25.228V49.6a.8.8,0,0,1-.8.8" transform="translate(0 -2.4)" fill="#3794a7"/>
    <path id="Path_530" data-name="Path 530" d="M46.6,19.2a5.6,5.6,0,1,1,5.6-5.6,5.607,5.607,0,0,1-5.6,5.6m0-9.6a4,4,0,1,0,4,4,4,4,0,0,0-4-4" transform="translate(-8.2 -1.6)" fill="#3794a7"/>
    <path id="Path_531" data-name="Path 531" d="M52.6,53.4H47.8a.8.8,0,0,1-.8-.8v-16h1.6V51.8h3.2V27h1.6V52.6a.8.8,0,0,1-.8.8" transform="translate(-9.4 -5.4)" fill="#3794a7"/>
    <path id="Path_532" data-name="Path 532" d="M44.2,50.4H39.4a.8.8,0,0,1-.8-.8V25.228l-9.244-6.162A.8.8,0,0,1,29,18.4V12.8a.8.8,0,0,1,1.244-.666l9.4,6.266H49.8a4,4,0,0,1,4,4v12a.8.8,0,0,1-.8.8H49V33.6h3.2V22.4A2.4,2.4,0,0,0,49.8,20H39.4a.8.8,0,0,1-.444-.134L30.6,14.294v3.678l9.244,6.162a.8.8,0,0,1,.356.666v24h3.2V33.6H45v16a.8.8,0,0,1-.8.8" transform="translate(-5.8 -2.4)" fill="#3794a7"/>
    <path id="Path_533" data-name="Path 533" d="M28.6,11.2a5.6,5.6,0,1,1,5.6-5.6,5.607,5.607,0,0,1-5.6,5.6m0-9.6a4,4,0,1,0,4,4,4,4,0,0,0-4-4" transform="translate(-4.6)" fill="#3794a7"/>
    <rect id="Rectangle_418" data-name="Rectangle 418" width="4.8" height="1.6" transform="translate(21.6 4.8)" fill="#3794a7"/>
    <rect id="Rectangle_419" data-name="Rectangle 419" width="1.6" height="4.8" transform="translate(23.2 3.2)" fill="#3794a7"/>
    <path id="Path_534" data-name="Path 534" d="M15.2,19.2A3.2,3.2,0,0,1,12,16h1.6a1.6,1.6,0,0,0,1.6,1.6Z" transform="translate(-2.4 -3.2)" fill="#3794a7"/>
    <path id="Path_535" data-name="Path 535" d="M44,19.2V17.6A1.6,1.6,0,0,0,45.6,16h1.6A3.2,3.2,0,0,1,44,19.2" transform="translate(-8.8 -3.2)" fill="#3794a7"/>
    <path id="Path_536" data-name="Path 536" d="M11.221,26.511a.8.8,0,0,1-.716-.442l-2.4-4.8,1.432-.715,1.684,3.369L12.9,20.553l1.432.715-2.4,4.8a.8.8,0,0,1-.716.442" transform="translate(-1.621 -4.111)" fill="#3794a7"/>
    <rect id="Rectangle_420" data-name="Rectangle 420" width="1.6" height="9.6" transform="translate(37.6 16.8)" fill="#3794a7"/>
  </g>
</svg>
